{"title":"The Walking Dead.S02E08.720p.x264.HDTV-miRaGe[r3mnants]","uid":7028687,"size":560987699,"categoryP":"video","categoryS":"hd___tv_shows","magnet":"?xt=urn:btih:e1b50aaff08f0468386cefcb4037e173c8e40267&amp;dn=The+Walking+Dead.S02E08.720p.x264.HDTV-miRaGe%5Br3mnants%5D&amp;tr=udp%3A%2F%2Ftracker.openbittorrent.com%3A80&amp;tr=udp%3A%2F%2Fopen.demonii.com%3A1337&amp;tr=udp%3A%2F%2Ftracker.coppersurfer.tk%3A6969&amp;tr=udp%3A%2F%2Fexodus.desync.com%3A6969","seeders":2,"leechers":0,"uploader":"r3mnants","files":3,"time":1329156114,"description":" &lt;a href=&quot;http://i1231.photobucket.com/albums/ee513/demonlord4000/Uploading/Uploading%20Description%20Pictures/miRaGeBanner.jpg&quot; rel=&quot;nofollow&quot; target=&quot;_NEW&quot;&gt;http://i1231.photobucket.com/albums/ee513/demonlord4000/Uploading/Uploading%20Description%20Pictures/miRaGeBanner.jpg&lt;/a&gt;\n\nThe Walking Dead - Nebraska - S02E08\n\nCapped &amp; encoded by:\nr3mnants\n &lt;a href=&quot;\nhttp://sceneunderground.org/static/0cfbe45ae46cb86437841d89e16e163a.png&quot; rel=&quot;nofollow&quot; target=&quot;_NEW&quot;&gt;\nhttp://sceneunderground.org/static/0cfbe45ae46cb86437841d89e16e163a.png&lt;/a&gt; &lt;a href=&quot;\nhttp://sceneunderground.org/static/12690427c0b2bcb5e2cf3fd058901ce3.png&quot; rel=&quot;nofollow&quot; target=&quot;_NEW&quot;&gt;\nhttp://sceneunderground.org/static/12690427c0b2bcb5e2cf3fd058901ce3.png&lt;/a&gt;\n\nOnline Info:\nIMDB: http://www.imdb.com/title/tt1520211\nAired: Feb. 12 2012\nRating: TV-14\nPlot: Rick and the others try to restore order in the aftermath a \nterrible discovery. When Hershel takes up an old habit and disappears, Rick and Glenn must follow him into town.\n\nFormat                                   : MPEG-4\nFormat profile                           : Base Media\nCodec ID                                 : isom\nFile size                                : 534 MiB\nDuration                                 : 42mn 40s\nOverall bit rate mode                    : Variable\nOverall bit rate                         : 1748 Kbps\n\nVideo\nID                                       : 1\nFormat                                   : AVC\nFormat/Info                              : Advanced Video Codec\nFormat profile                           : &lt;a class=&quot;__cf_email__&quot; href=&quot;/cdn-cgi/l/email-protection&quot; data-cfemail=&quot;87cfeee0efc7cbb3a9b7&quot;&gt;[email&amp;#160;protected]&lt;/a&gt;&lt;script cf-hash='f9e31' type=&quot;text/javascript&quot;&gt;\n/* &lt;![CDATA[ */!function(){try{var t=&quot;currentScript&quot;in document?document.currentScript:function(){for(var t=document.getElementsByTagName(&quot;script&quot;),e=t.length;e--;)if(t[e].getAttribute(&quot;cf-hash&quot;))return t[e]}();if(t&amp;&amp;t.previousSibling){var e,r,n,i,c=t.previousSibling,a=c.getAttribute(&quot;data-cfemail&quot;);if(a){for(e=&quot;&quot;,r=parseInt(a.substr(0,2),16),n=2;a.length-n;n+=2)i=parseInt(a.substr(n,2),16)^r,e+=String.fromCharCode(i);e=document.createTextNode(e),c.parentNode.replaceChild(e,c)}}}catch(u){}}();/* ]]&gt; */&lt;/script&gt;\nFormat settings, CABAC                   : Yes\nFormat settings, ReFrames                : 3 frames\nCodec ID                                 : avc1\nCodec ID/Info                            : Advanced Video Coding\nDuration                                 : 42mn 40s\nBit rate mode                            : Variable\nBit rate                                 : 1616 Kbps\nMaximum bit rate                         : 25.0 Mbps\nWidth                                    : 1280 pixels\nHeight                                   : 720 pixels\nDisplay aspect ratio                     : 16:9\nFrame rate mode                          : Constant\nFrame rate                               : 29.970 fps\nColor space                              : YUV\nChroma subsampling                       : 4:2:0\nBit depth                                : 8 bits\nScan type                                : Progressive\nBits/(Pixel*Frame)                       : 0.059\nStream size                              : 493 MiB (92%)\nWriting library                          : x264 core 120 r2120 0c7dab9\n\nAudio\nID                                       : 2\nFormat                                   : AAC\nFormat/Info                              : Advanced Audio Codec\nFormat profile                           : LC\nCodec ID                                 : 40\nDuration                                 : 42mn 40s\nBit rate mode                            : Variable\nBit rate                                 : 128 Kbps\nMaximum bit rate                         : 180 Kbps\nChannel(s)                               : 2 channels\nChannel positions                        : Front: L R\nSampling rate                            : 48.0 KHz\nCompression mode                         : Lossy\nStream size                              : 39.1 MiB (7%)\n\nGreetz:\nThanks to SiniSteR, 26k, HDscene, BTVRG, Noir, and everyone else we respect\n\nSpecial shout out to everyone at the underground","torrent":{"xt":"urn:btih:e1b50aaff08f0468386cefcb4037e173c8e40267","amp;dn":"The+Walking+Dead.S02E08.720p.x264.HDTV-miRaGe%5Br3mnants%5D","amp;tr":["udp%3A%2F%2Ftracker.openbittorrent.com%3A80","udp%3A%2F%2Fopen.demonii.com%3A1337","udp%3A%2F%2Ftracker.coppersurfer.tk%3A6969","udp%3A%2F%2Fexodus.desync.com%3A6969"],"infoHash":"e1b50aaff08f0468386cefcb4037e173c8e40267","infoHashBuffer":{"type":"Buffer","data":[225,181,10,175,240,143,4,104,56,108,239,203,64,55,225,115,200,228,2,103]},"announce":[],"urlList":[]}}